<?xml version="1.0" encoding="utf-8"?>
<!-- Generator: Adobe Illustrator 19.1.0, SVG Export Plug-In . SVG Version: 6.00 Build 0)  -->
<svg version="1.1" id="Layer_1" xmlns="http://www.w3.org/2000/svg" xmlns:xlink="http://www.w3.org/1999/xlink" x="0px" y="0px"
	 viewBox="0 0 100 100" style="enable-background:new 0 0 100 100;" xml:space="preserve">
<path d="M76.2,63.3c4,0,7.4-3.3,7.4-7.4s-3.3-7.4-7.4-7.4s-7.4,3.3-7.4,7.4S72.1,63.3,76.2,63.3z M76.2,51.4c2.4,0,4.5,2,4.5,4.5
	c0,2.6-2,4.5-4.5,4.5s-4.5-2-4.5-4.5C71.7,53.4,73.7,51.4,76.2,51.4z M74.1,55.9c0-1.2,1-2.1,2.1-2.1c1.2,0,2.1,1,2.1,2.1
	c0,1.2-1,2.1-2.1,2.1C75,58.1,74.1,57.1,74.1,55.9z M16.3,55.9c0,4,3.3,7.4,7.4,7.4c4.1,0,7.4-3.3,7.4-7.4s-3.3-7.4-7.4-7.4
	C19.5,48.6,16.3,52,16.3,55.9z M23.5,51.4c2.4,0,4.5,2,4.5,4.5c0,2.6-2,4.5-4.5,4.5s-4.5-2-4.5-4.5C19,53.4,21.1,51.4,23.5,51.4z
	 M21.4,55.9c0-1.2,1-2.1,2.1-2.1s2.1,1,2.1,2.1c0,1.2-1,2.1-2.1,2.1S21.4,57.1,21.4,55.9z M97.8,49.3c0,14.3-11.6,25.8-25.8,25.8
	c-8.9,0-17.3-4.7-22-12.3c-4.7,7.7-13,12.3-22,12.3c-14.3,0-25.8-11.6-25.8-25.8c0-8.2,6-18.1,14.6-24.1c0.7-0.4,1.6-0.3,2,0.4
	c0.4,0.7,0.3,1.6-0.4,2C10.6,33,4.9,42.2,4.9,49.4c0,12.6,10.3,23,23,23c8.1,0,15.7-4.4,19.8-11.5c0.4-0.7,1.3-1.1,2.1-1.1
	s1.7,0.4,2.1,1.1c4.1,7.1,11.6,11.5,19.8,11.5c12.6,0,23-10.3,23-23c0-7.2-5.7-16.4-13.5-21.8c-0.7-0.4-0.9-1.3-0.4-2
	c0.4-0.7,1.4-0.9,2-0.4C91.5,31.1,97.6,41.1,97.8,49.3z"/>
</svg>
