<?xml version="1.0" encoding="utf-8"?>
<!-- Generator: Adobe Illustrator 19.1.0, SVG Export Plug-In . SVG Version: 6.00 Build 0)  -->
<svg version="1.1" id="Layer_1" xmlns="http://www.w3.org/2000/svg" xmlns:xlink="http://www.w3.org/1999/xlink" x="0px" y="0px"
	 viewBox="0 0 100 100" style="enable-background:new 0 0 100 100;" xml:space="preserve">
<path d="M82.7,43.8l-35.4,8.8l8.9-35.4c0.3-1.1-0.4-2.1-1.4-2.4c-3.3-0.8-6.7-1.2-10.1-1.2c-23.1,0-41.8,18.7-41.8,41.8
	s18.7,41.8,41.8,41.8s41.8-18.7,41.8-41.8c0-3.4-0.4-6.8-1.2-10.1C84.9,44.2,83.8,43.5,82.7,43.8z M44.6,93.2
	c-20.9,0-37.8-16.9-37.8-37.8s16.9-37.8,37.8-37.8c2.5,0,4.9,0.2,7.2,0.7l-9.1,36.6c-0.4,1.5,1,2.8,2.4,2.4l36.6-9.2
	c0.5,2.4,0.7,4.8,0.7,7.2C82.4,76.2,65.5,93.2,44.6,93.2z M97.1,33.3C93.4,18.4,81.6,6.6,66.7,2.9c-1.1-0.3-2.1,0.4-2.4,1.4L54.6,43
	c-0.4,1.5,1,2.8,2.4,2.4l38.6-9.6C96.7,35.5,97.3,34.4,97.1,33.3z M59.3,40.7l8.4-33.4c12,3.7,21.4,13.1,25.1,25L59.3,40.7z
	 M74.5,29.5c0,2.2-1.8,4-4,4s-4-1.8-4-4s1.8-4,4-4S74.5,27.3,74.5,29.5z M74.5,15.6c0,1.1-0.9,2-2,2c-1.1,0-2-0.9-2-2
	c0-1.1,0.9-2,2-2C73.6,13.6,74.5,14.5,74.5,15.6z M82.4,27.5c0,1.1-0.9,2-2,2s-2-0.9-2-2c0-1.1,0.9-2,2-2S82.4,26.4,82.4,27.5z
	 M30.7,45.4c0,2.2-1.8,4-4,4c-2.2,0-4-1.8-4-4s1.8-4,4-4C28.9,41.5,30.7,43.2,30.7,45.4z M26.7,69.3c0,2.2-1.8,4-4,4s-4-1.8-4-4
	c0-2.2,1.8-4,4-4S26.7,67.1,26.7,69.3z M58.5,77.2c0,2.2-1.8,4-4,4s-4-1.8-4-4s1.8-4,4-4S58.5,75.1,58.5,77.2z M46.6,67.3
	c0,1.1-0.9,2-2,2c-1.1,0-2-0.9-2-2s0.9-2,2-2C45.7,65.3,46.6,66.2,46.6,67.3z M70.5,59.4c0,1.1-0.9,2-2,2c-1.1,0-2-0.9-2-2
	c0-1.1,0.9-2,2-2C69.6,57.4,70.5,58.3,70.5,59.4z M42.6,27.5c0,1.1-0.9,2-2,2c-1.1,0-2-0.9-2-2c0-1.1,0.9-2,2-2
	C41.7,25.5,42.6,26.4,42.6,27.5z"/>
</svg>
