<?xml version="1.0" encoding="utf-8"?>
<!-- Generator: Adobe Illustrator 19.1.0, SVG Export Plug-In . SVG Version: 6.00 Build 0)  -->
<svg version="1.1" id="Layer_1" xmlns="http://www.w3.org/2000/svg" xmlns:xlink="http://www.w3.org/1999/xlink" x="0px" y="0px"
	 viewBox="0 0 100 100" style="enable-background:new 0 0 100 100;" xml:space="preserve">
<path d="M32.6,43.3c0-6.1,2.1-10.6,4.8-10.6c2.7,0,4.8,4.6,4.8,10.6c0,6.1-2.1,10.6-4.8,10.6C34.6,54,32.6,49.4,32.6,43.3z M62.7,54
	c2.7,0,4.8-4.6,4.8-10.6c0-6.1-2.1-10.6-4.8-10.6c-2.7,0-4.8,4.6-4.8,10.6C57.9,49.4,59.9,54,62.7,54z M72.4,59.5
	c-1-0.5-2.4,0-2.8,1c-0.2,0.5-5.8,12-19.5,12c-13.7,0-19.3-11.5-19.5-12c-0.5-1-1.8-1.5-2.8-1c-1.1,0.5-1.5,1.8-1,2.8
	c0.3,0.6,6.9,14.5,23.4,14.5c16.5,0,23.2-13.9,23.4-14.5C73.9,61.2,73.5,60,72.4,59.5z M95,50c0,24.8-20.2,45-45,45S5,74.8,5,50
	S25.2,5,50,5S95,25.2,95,50z M90.7,50C90.7,27.5,72.5,9.3,50,9.3S9.3,27.5,9.3,50S27.5,90.7,50,90.7S90.7,72.5,90.7,50z"/>
</svg>
