<?xml version="1.0" encoding="utf-8"?>
<!-- Generator: Adobe Illustrator 19.1.0, SVG Export Plug-In . SVG Version: 6.00 Build 0)  -->
<svg version="1.1" id="Layer_1" xmlns="http://www.w3.org/2000/svg" xmlns:xlink="http://www.w3.org/1999/xlink" x="0px" y="0px"
	 viewBox="0 0 100 100" style="enable-background:new 0 0 100 100;" xml:space="preserve">
<path d="M94.5,3.4C94,3,93.4,2.9,92.8,3L39.5,16.4c-0.9,0.2-1.5,1-1.5,1.9v58.9c-3.4-2.8-8.7-4.6-14.7-4.6
	c-10.5,0-18.7,5.3-18.7,12.1S12.8,97,23.3,97S42,91.7,42,84.9V33.3L91.3,21v43.2c-3.4-2.8-8.7-4.6-14.7-4.6
	C66.2,59.6,58,64.9,58,71.7c0,6.8,8.2,12.1,18.7,12.1s18.7-5.3,18.7-12.1V5C95.3,4.4,95,3.8,94.5,3.4z M23.3,93
	c-8,0-14.7-3.7-14.7-8.1c0-4.4,6.7-8.1,14.7-8.1S38,80.5,38,84.9C38,89.3,31.2,93,23.3,93z M42,29.2V20L91.3,7.6v9.3L42,29.2z
	 M76.7,79.8c-8,0-14.7-3.7-14.7-8.1s6.7-8.1,14.7-8.1s14.7,3.7,14.7,8.1S84.7,79.8,76.7,79.8z"/>
</svg>
