<?xml version="1.0" encoding="utf-8"?>
<!-- Generator: Adobe Illustrator 19.1.0, SVG Export Plug-In . SVG Version: 6.00 Build 0)  -->
<svg version="1.1" id="Layer_1" xmlns="http://www.w3.org/2000/svg" xmlns:xlink="http://www.w3.org/1999/xlink" x="0px" y="0px"
	 viewBox="0 0 100 100" style="enable-background:new 0 0 100 100;" xml:space="preserve">
<path d="M77.5,24.6c0.7-1.2,1.1-2.5,1.1-3.9c0-3.9-3-7.2-6.9-7.6c-1.4-3.4-4.7-5.6-8.5-5.6c-0.5,0-1.1,0-1.6,0.1
	c-1.6-3-4.7-4.9-8.2-4.9c-5,0-9.1,4-9.2,9c-2.2-0.4-4.5,0-6.4,1.1c-1.5-1-3.2-1.6-5-1.6c-4.8,0-8.7,3.9-8.7,8.7c0,0.4,0,0.9,0.1,1.3
	c-3.3,1.2-5.7,4.5-5.7,8.2c0,4.5,2.7,8.1,6.2,8.6l8.6,58.1c0.1,0.6,0.6,1.1,1.2,1.1h31c0.6,0,1.1-0.5,1.2-1.1l8.6-58.1
	c3.4-0.6,6-3.5,6-7.1C81.4,28.3,79.8,25.8,77.5,24.6z M35.7,94.8l-8.4-56.6H37l3.6,56.6H35.7z M48.9,94.8h-5.8l-3.6-56.6h9.4V94.8z
	 M51.4,94.8V38.2h9.4l-3.6,56.6C57.1,94.8,51.4,94.8,51.4,94.8z M64.5,94.8h-4.9l3.6-56.6h9.7L64.5,94.8z M74.2,35.7H25.9
	c0,0,0,0-0.1,0c0,0,0,0-0.1,0c-2.6,0-4.7-2.7-4.7-6.2c0-3,2.1-5.5,4.9-6.1c0.3-0.1,0.6-0.3,0.8-0.6c0.2-0.3,0.2-0.7,0.1-1
	c-0.2-0.6-0.3-1.2-0.3-1.8c0-3.4,2.8-6.2,6.2-6.2c1.5,0,3,0.6,4.1,1.6c0.4,0.4,1.1,0.4,1.6,0.1c1.9-1.4,4.4-1.7,6.5-0.8
	c0.4,0.2,0.9,0.1,1.3-0.2c0.4-0.3,0.5-0.8,0.4-1.2c-0.1-0.4-0.1-0.9-0.1-1.3c0-3.7,3-6.7,6.7-6.7c2.8,0,5.3,1.7,6.3,4.3
	c0.2,0.6,0.9,0.9,1.5,0.7c0.6-0.2,1.3-0.3,2-0.3c2.9,0,5.5,1.9,6.4,4.7c0.2,0.5,0.6,0.9,1.2,0.9c0,0,0.1,0,0.1,0
	c2.8,0,5.1,2.4,5.1,5.2c0,1.4-0.5,2.7-1.5,3.6c-0.3,0.3-0.4,0.8-0.3,1.2c0.1,0.4,0.5,0.8,0.9,0.9c2.1,0.5,3.7,2.4,3.7,4.6
	C78.9,33.6,76.8,35.7,74.2,35.7z M40,22.7c-0.7,0.3-1.3,0.7-1.9,1.2c-1.6-0.8-3.5-0.9-5.1-0.2c-3.2,1.3-4.7,5-3.4,8.2
	c0.2,0.5,0.7,0.8,1.2,0.8c0.2,0,0.3,0,0.5-0.1c0.6-0.3,0.9-1,0.7-1.6c-0.8-1.9,0.1-4.2,2.1-5c1.2-0.5,2.6-0.3,3.7,0.5
	c0.3,0.2,0.6,0.3,1,0.2c0.3-0.1,0.6-0.3,0.8-0.5c0.4-0.6,0.9-1,1.5-1.2c1.7-0.7,3.7,0.1,4.4,1.8c0.3,0.6,1,0.9,1.6,0.7
	c0.6-0.3,0.9-1,0.7-1.6C46.4,22.9,43,21.4,40,22.7z M56,17.8c-0.5,0.6-0.9,1.2-1.2,1.9c-1.8-0.1-3.5,0.6-4.8,1.9
	c-0.5,0.5-0.5,1.3,0,1.8c0.5,0.5,1.3,0.5,1.8,0c0.9-1,2.3-1.4,3.6-1.1c0.3,0.1,0.7,0,1-0.2c0.3-0.2,0.5-0.5,0.5-0.8
	c0.1-0.7,0.4-1.3,0.9-1.8c1.3-1.3,3.4-1.4,4.7-0.1c0.6,0.6,1,1.5,1,2.3c0,0.9-0.3,1.7-0.9,2.4c-0.2,0.2-0.4,0.3-0.6,0.5
	c-0.3,0.2-0.5,0.5-0.5,0.8c-0.1,0.3,0,0.7,0.2,0.9c0.5,0.7,0.4,1.6-0.2,2.2c-0.5,0.5-0.5,1.3,0,1.8c0.2,0.2,0.6,0.3,0.9,0.3
	c0.3,0,0.7-0.1,0.9-0.4c1.1-1.1,1.4-2.8,1-4.2c0.1-0.1,0.1-0.1,0.2-0.2c1.1-1.1,1.7-2.6,1.6-4.2c0-1.6-0.7-3-1.8-4.1
	C62,15.4,58.3,15.5,56,17.8z"/>
</svg>
