<?xml version="1.0" encoding="utf-8"?>
<!-- Generator: Adobe Illustrator 19.1.0, SVG Export Plug-In . SVG Version: 6.00 Build 0)  -->
<svg version="1.1" id="Layer_1" xmlns="http://www.w3.org/2000/svg" xmlns:xlink="http://www.w3.org/1999/xlink" x="0px" y="0px"
	 viewBox="0 0 100 100" style="enable-background:new 0 0 100 100;" xml:space="preserve">
<path d="M96.7,94.4c0.8,0.8,0.8,2,0,2.8c-0.4,0.4-0.9,0.6-1.4,0.6s-1-0.2-1.4-0.6L49.9,53.4L6,97.3c-0.4,0.4-0.9,0.6-1.4,0.6
	s-1-0.2-1.4-0.6c-0.8-0.8-0.8-2,0-2.8l43.9-43.9L3.2,6.6c-0.8-0.8-0.8-2,0-2.8C4,3,5.2,3,6,3.8l43.9,43.9L93.8,3.8
	c0.8-0.8,2-0.8,2.8,0c0.8,0.8,0.8,2,0,2.8L52.8,50.5L96.7,94.4z"/>
</svg>
