<?xml version="1.0" encoding="utf-8"?>
<!-- Generator: Adobe Illustrator 19.1.0, SVG Export Plug-In . SVG Version: 6.00 Build 0)  -->
<svg version="1.1" id="Layer_1" xmlns="http://www.w3.org/2000/svg" xmlns:xlink="http://www.w3.org/1999/xlink" x="0px" y="0px"
	 viewBox="0 0 100 100" style="enable-background:new 0 0 100 100;" xml:space="preserve">
<path d="M96.7,94.4L70.2,68c6.4-6.9,10.3-16.1,10.3-26.2c0-21.2-17.3-38.5-38.5-38.5C20.8,3.3,3.6,20.5,3.6,41.8
	c0,21.2,17.3,38.5,38.5,38.5c9.7,0,18.5-3.6,25.3-9.5l26.5,26.5c0.4,0.4,0.9,0.6,1.4,0.6s1-0.2,1.4-0.6
	C97.4,96.5,97.4,95.2,96.7,94.4z M7.6,41.8c0-19,15.5-34.5,34.5-34.5s34.5,15.5,34.5,34.5c0,9.6-3.9,18.2-10.2,24.5
	c-0.1,0.1-0.3,0.2-0.4,0.3c-0.1,0.1-0.2,0.2-0.3,0.3c-6.2,5.8-14.5,9.4-23.6,9.4C23,76.3,7.6,60.8,7.6,41.8z"/>
</svg>
